<?xml version="1.0" encoding="UTF-8" standalone="no"?>
<!-- Created with Inkscape (http://www.inkscape.org/) -->

<svg
   xmlns:dc="http://purl.org/dc/elements/1.1/"
   xmlns:cc="http://creativecommons.org/ns#"
   xmlns:rdf="http://www.w3.org/1999/02/22-rdf-syntax-ns#"
   xmlns:svg="http://www.w3.org/2000/svg"
   xmlns="http://www.w3.org/2000/svg"
   xmlns:sodipodi="http://sodipodi.sourceforge.net/DTD/sodipodi-0.dtd"
   xmlns:inkscape="http://www.inkscape.org/namespaces/inkscape"
   width="297mm"
   height="420mm"
   viewBox="0 0 1052.3622 1488.189"
   id="svg9651"
   version="1.1"
   inkscape:version="0.92.2 5c3e80d, 2017-08-06"
   sodipodi:docname="back.svg"
   inkscape:export-filename="/Users/bebatut/Documents/com/conf/2019/gcc2019/com/teeshirt/back.png"
   inkscape:export-xdpi="300"
   inkscape:export-ydpi="300"
   style="enable-background:new">
  <defs
     id="defs9653">
    <filter
       inkscape:collect="always"
       style="color-interpolation-filters:sRGB"
       id="filter884">
      <feBlend
         inkscape:collect="always"
         mode="luminosity"
         in2="BackgroundImage"
         id="feBlend886" />
    </filter>
  </defs>
  <sodipodi:namedview
     id="base"
     pagecolor="#2c3143"
     bordercolor="#666666"
     borderopacity="1.0"
     inkscape:pageopacity="0"
     inkscape:pageshadow="2"
     inkscape:zoom="0.35"
     inkscape:cx="545.13941"
     inkscape:cy="884.8502"
     inkscape:document-units="px"
     inkscape:current-layer="text2817"
     showgrid="false"
     fit-margin-top="4"
     fit-margin-left="4"
     fit-margin-right="4"
     fit-margin-bottom="4"
     inkscape:window-width="1923"
     inkscape:window-height="1183"
     inkscape:window-x="0"
     inkscape:window-y="0"
     inkscape:window-maximized="0"
     showguides="true"
     inkscape:guide-bbox="true"
     showborder="false" />
  <metadata
     id="metadata9656">
    <rdf:RDF>
      <cc:Work
         rdf:about="">
        <dc:format>image/svg+xml</dc:format>
        <dc:type
           rdf:resource="http://purl.org/dc/dcmitype/StillImage" />
        <dc:title></dc:title>
      </cc:Work>
    </rdf:RDF>
  </metadata>
  <g
     inkscape:label="Layer 1"
     inkscape:groupmode="layer"
     id="layer1"
     transform="translate(523.07472,1386.0241)"
     style="filter:url(#filter884)">
    <g
       transform="matrix(2.0862262,0,0,2.0862262,-615.77946,-5518.4933)"
       id="g887">
      <path
         sodipodi:nodetypes="ccccccccccc"
         inkscape:connector-curvature="0"
         id="path5581-0-2-0-6"
         d="m 154.64671,2120.2149 -0.12627,-45.2043 14.14214,-32.5774 15.15228,32.3249 0.75762,71.9733 c 0.0421,2.544 -3.70389,2.6221 -3.6618,0 l -0.12627,-44.6992 -11.61676,-22.7284 -10.6066,23.7385 -0.25253,18.0565 c -0.12627,3.3629 -3.57763,3.3593 -3.66181,-0.8839 z"
         style="fill:#ffffff;fill-opacity:1;fill-rule:evenodd;stroke:none;stroke-width:1px;stroke-linecap:butt;stroke-linejoin:miter;stroke-opacity:1" />
      <path
         sodipodi:nodetypes="ccccccccccc"
         inkscape:connector-curvature="0"
         id="path5581-6-4-4-1-9"
         d="m 238.66176,2120.6089 0.12627,-45.2043 -14.14214,-32.5774 -15.15228,32.3248 -0.75762,71.9734 c -0.0421,2.544 3.70389,2.6221 3.6618,0 l 0.12627,-44.6993 11.61676,-22.7284 10.6066,23.7386 0.25253,18.0565 c 0.12627,3.3628 3.57763,3.3592 3.66181,-0.8839 z"
         style="fill:#ffffff;fill-opacity:1;fill-rule:evenodd;stroke:none;stroke-width:1px;stroke-linecap:butt;stroke-linejoin:miter;stroke-opacity:1" />
      <path
         sodipodi:nodetypes="ccccc"
         inkscape:connector-curvature="0"
         id="path4228-4-4-6-4"
         d="m 90.375761,2197.4916 c 8.21165,-29.3634 61.021269,-133.6053 101.520329,-5.5558 h -10.6066 c -30.46803,-99.5592 -63.79366,-22.8863 -69.19545,4.5457 z"
         style="fill:#ffffff;fill-opacity:1;fill-rule:evenodd;stroke:none;stroke-width:1px;stroke-linecap:butt;stroke-linejoin:miter;stroke-opacity:1" />
      <path
         sodipodi:nodetypes="ccccc"
         inkscape:connector-curvature="0"
         id="path4228-1-7-3-2-3-2"
         d="m 265.42464,2135.7778 c -19.29124,-13.7247 -42.61841,-7.7728 -62.86794,56.2519 h 10.6066 c 15.23402,-49.7796 31.18243,-55.5012 43.99757,-45.3489 z"
         style="fill:#ffffff;fill-opacity:1;fill-rule:evenodd;stroke:none;stroke-width:1px;stroke-linecap:butt;stroke-linejoin:miter;stroke-opacity:1" />
    </g>
    <g
       aria-label="Freiburg, DE - July 2019"
       style="font-style:normal;font-variant:normal;font-weight:200;font-stretch:normal;font-size:42.47529221px;line-height:0.01%;font-family:Exo;-inkscape-font-specification:'Exo Ultra-Light';text-align:start;letter-spacing:0px;word-spacing:0px;text-anchor:start;fill:#ffffff;fill-opacity:1;stroke:none;stroke-width:1.6171869px;stroke-linecap:butt;stroke-linejoin:miter;stroke-opacity:1"
       id="text2823">
      <path
         d="m -0.15274321,-969.79286 0.16990117,-2.12376 c -3.90772686,-0.25485 -8.11278076,-0.25485 -12.19040896,-0.25485 -3.100696,0 -5.181986,1.91139 -5.181986,4.96961 v 24.38082 h 2.80337 v -14.05933 l 12.7425874,-0.0425 v -2.25119 H -14.551867 v -7.51813 c 0,-2.03881 1.061882,-3.1007 3.058221,-3.1007 z"
         style="font-style:normal;font-variant:normal;font-weight:300;font-stretch:normal;font-size:42.47529221px;line-height:1.25;font-family:'Exo 2';-inkscape-font-specification:'Exo 2 Light';text-align:start;text-anchor:start;fill:#ffffff;fill-opacity:1;stroke-width:1.6171869px"
         id="path2876" />
      <path
         d="m 16.817463,-963.93127 h -0.891981 c -2.88832,0 -5.9465406,1.48664 -9.0897123,3.99268 l -0.297327,-3.4405 H 4.4571534 v 20.55805 h 2.7184187 v -15.41854 c 3.4404989,-1.99633 5.7341649,-3.14317 8.2826819,-3.14317 h 1.019407 z"
         style="font-style:normal;font-variant:normal;font-weight:300;font-stretch:normal;font-size:42.47529221px;line-height:1.25;font-family:'Exo 2';-inkscape-font-specification:'Exo 2 Light';text-align:start;text-anchor:start;fill:#ffffff;fill-opacity:1;stroke-width:1.6171869px"
         id="path2878" />
      <path
         d="m 29.388161,-944.64748 c -4.714758,0 -6.796047,-1.52911 -7.093374,-7.13585 h 10.236545 c 3.355549,0 4.757233,-2.03882 4.714758,-5.73417 -0.04248,-4.24753 -2.675943,-6.41377 -8.580009,-6.41377 -6.541195,0 -9.217139,2.71842 -9.217139,10.74625 0,7.90041 2.675944,10.87368 9.556941,10.87368 2.336141,0 6.031492,-0.3398 7.772979,-1.01941 l -0.297327,-1.82644 c -1.953864,0.25486 -4.672282,0.50971 -7.093374,0.50971 z m -0.594654,-16.94764 c 3.992677,0 5.691689,1.23178 5.734164,4.1201 0.04248,2.03881 -0.509703,3.56792 -2.633468,3.56792 h -9.641891 c 0.127426,-5.81911 1.783962,-7.68802 6.541195,-7.68802 z"
         style="font-style:normal;font-variant:normal;font-weight:300;font-stretch:normal;font-size:42.47529221px;line-height:1.25;font-family:'Exo 2';-inkscape-font-specification:'Exo 2 Light';text-align:start;text-anchor:start;fill:#ffffff;fill-opacity:1;stroke-width:1.6171869px"
         id="path2880" />
      <path
         d="m 44.008287,-972.04405 c -0.637129,0 -0.891981,0.29733 -0.891981,0.89199 v 2.46356 c 0,0.59466 0.254852,0.89198 0.891981,0.89198 h 1.231784 c 0.594654,0 0.891981,-0.29732 0.891981,-0.89198 v -2.46356 c 0,-0.59466 -0.297327,-0.89199 -0.891981,-0.89199 z m 1.953864,29.22301 v -20.55805 h -2.675943 v 20.55805 z"
         style="font-style:normal;font-variant:normal;font-weight:300;font-stretch:normal;font-size:42.47529221px;line-height:1.25;font-family:'Exo 2';-inkscape-font-specification:'Exo 2 Light';text-align:start;text-anchor:start;fill:#ffffff;fill-opacity:1;stroke-width:1.6171869px"
         id="path2882" />
      <path
         d="m 63.686291,-963.93127 c -2.803369,0 -5.521788,1.44416 -8.155256,4.03516 0.297327,-1.44416 0.297327,-2.67595 0.297327,-4.41743 v -8.24021 h -2.675943 v 28.84072 c 2.845845,0.89199 6.286343,1.40169 9.174663,1.40169 6.668621,0 8.834861,-3.52545 8.834861,-10.8312 0,-7.77298 -2.251191,-10.78873 -7.475652,-10.78873 z m -1.401684,19.28379 c -2.038814,0.0425 -4.162579,-0.1699 -6.456245,-0.80703 v -12.61516 c 2.80337,-2.16624 4.714758,-3.48298 7.093374,-3.48298 4.162579,0 5.436838,2.20872 5.436838,8.41011 0,6.28634 -1.699012,8.49506 -6.073967,8.49506 z"
         style="font-style:normal;font-variant:normal;font-weight:300;font-stretch:normal;font-size:42.47529221px;line-height:1.25;font-family:'Exo 2';-inkscape-font-specification:'Exo 2 Light';text-align:start;text-anchor:start;fill:#ffffff;fill-opacity:1;stroke-width:1.6171869px"
         id="path2884" />
      <path
         d="m 94.200809,-963.37909 h -2.675943 v 15.37606 c -3.270598,2.20871 -5.479313,3.35555 -7.900405,3.35555 -2.675943,0 -3.780301,-1.14684 -3.780301,-3.99268 v -14.73893 h -2.675943 v 15.46101 c 0,3.69535 1.911388,5.60674 5.564263,5.60674 3.015746,0 5.946541,-1.23178 9.132188,-3.73783 l 0.212377,3.22813 h 2.123764 z"
         style="font-style:normal;font-variant:normal;font-weight:300;font-stretch:normal;font-size:42.47529221px;line-height:1.25;font-family:'Exo 2';-inkscape-font-specification:'Exo 2 Light';text-align:start;text-anchor:start;fill:#ffffff;fill-opacity:1;stroke-width:1.6171869px"
         id="path2886" />
      <path
         d="m 113.71423,-963.93127 h -0.89198 c -2.88832,0 -5.94655,1.48664 -9.08972,3.99268 l -0.29732,-3.4405 h -2.08129 v 20.55805 h 2.71841 v -15.41854 c 3.4405,-1.99633 5.73417,-3.14317 8.28269,-3.14317 h 1.0194 z"
         style="font-style:normal;font-variant:normal;font-weight:300;font-stretch:normal;font-size:42.47529221px;line-height:1.25;font-family:'Exo 2';-inkscape-font-specification:'Exo 2 Light';text-align:start;text-anchor:start;fill:#ffffff;fill-opacity:1;stroke-width:1.6171869px"
         id="path2888" />
      <path
         d="m 136.51151,-961.84998 0.16991,-1.52911 h -6.3713 c -1.18931,-0.38227 -2.71842,-0.55218 -4.6298,-0.55218 -6.3713,0 -8.62249,2.03882 -8.62249,6.5412 0,2.50604 0.72208,4.24753 2.54852,5.26694 -2.03882,1.52911 -2.42109,5.01208 0.0849,6.45624 -2.63347,1.31673 -3.48297,2.71842 -3.48297,5.43684 0,4.58733 2.46356,6.11644 9.68436,6.11644 7.09338,0 9.55694,-1.52911 9.55694,-6.20139 0,-3.35555 -1.14683,-5.05456 -4.96961,-5.64922 l -7.9004,-1.31673 c -2.76089,-0.46723 -2.80337,-2.67594 -1.57159,-4.24753 1.18931,0.38228 2.7609,0.55218 4.67229,0.55218 6.32881,0 8.58,-1.99634 8.58,-6.41377 0,-1.78396 -0.3398,-3.18565 -1.1893,-4.24753 z m -10.83119,8.79239 c -4.50239,0 -6.11645,-1.31673 -6.11645,-4.33248 0,-3.1007 1.57159,-4.41743 6.11645,-4.41743 4.50238,0 6.03149,1.31673 6.03149,4.41743 0,3.01575 -1.52911,4.33248 -6.03149,4.33248 z m 7.13584,12.65764 c 0,3.10069 -1.65653,3.99267 -6.92347,3.99267 -5.39436,0 -7.0509,-0.8495 -7.0509,-3.99267 0,-2.20872 0.63713,-3.31308 2.50605,-4.58733 l 0.1699,-0.12743 7.68802,1.18931 c 2.97328,0.46723 3.6104,1.18931 3.6104,3.52545 z"
         style="font-style:normal;font-variant:normal;font-weight:300;font-stretch:normal;font-size:42.47529221px;line-height:1.25;font-family:'Exo 2';-inkscape-font-specification:'Exo 2 Light';text-align:start;text-anchor:start;fill:#ffffff;fill-opacity:1;stroke-width:1.6171869px"
         id="path2890" />
      <path
         d="m 141.97955,-947.3659 c -0.72208,0 -1.01941,0.29733 -1.06189,1.06188 v 2.59099 c -0.0425,0.55218 0.29733,0.89199 0.76456,0.89199 0,2.12376 -0.12743,3.27059 -0.3398,4.9696 l 1.27425,0.38228 c 0.76456,-1.78396 1.18931,-3.99268 1.23179,-6.11644 v -2.71842 c 0,-0.76455 -0.25485,-1.06188 -1.01941,-1.06188 z"
         style="font-style:normal;font-variant:normal;font-weight:300;font-stretch:normal;font-size:42.47529221px;line-height:1.25;font-family:'Exo 2';-inkscape-font-specification:'Exo 2 Light';text-align:start;text-anchor:start;fill:#ffffff;fill-opacity:1;stroke-width:1.6171869px"
         id="path2892" />
      <path
         d="m 170.78906,-972.51127 c -3.90772,0 -7.2208,0.1699 -10.15159,0.38227 v 29.30796 c 2.97327,0.21237 6.24387,0.38227 10.15159,0.38227 8.24021,0 11.17101,-3.82277 11.17101,-15.03625 0,-11.21348 -2.9308,-15.03625 -11.17101,-15.03625 z m 0,27.60894 c -2.84584,0 -5.26693,-0.0425 -7.3907,-0.085 v -25.01795 c 2.20872,-0.0425 4.54486,-0.085 7.3907,-0.085 6.15892,0 8.24021,3.22812 8.24021,12.61516 0,9.38704 -2.08129,12.57269 -8.24021,12.57269 z"
         style="font-style:normal;font-variant:normal;font-weight:300;font-stretch:normal;font-size:42.47529221px;line-height:1.25;font-family:'Exo 2';-inkscape-font-specification:'Exo 2 Light';text-align:start;text-anchor:start;fill:#ffffff;fill-opacity:1;stroke-width:1.6171869px"
         id="path2894" />
      <path
         d="m 206.0482,-945.15719 h -11.89308 c -1.82643,0 -2.84584,-1.06188 -2.84584,-3.05822 v -9.04723 h 13.08239 v -2.25119 h -13.08239 v -7.17833 c 0,-2.03881 1.01941,-3.1007 2.84584,-3.1007 h 11.89308 l 0.16991,-2.12376 c -3.99268,-0.25485 -8.36764,-0.25485 -12.53022,-0.25485 -3.10069,0 -5.18198,1.91139 -5.18198,4.84218 v 19.70854 c 0,2.93079 2.03881,4.84218 5.18198,4.84218 4.16258,0 8.53754,0 12.53022,-0.25485 z"
         style="font-style:normal;font-variant:normal;font-weight:300;font-stretch:normal;font-size:42.47529221px;line-height:1.25;font-family:'Exo 2';-inkscape-font-specification:'Exo 2 Light';text-align:start;text-anchor:start;fill:#ffffff;fill-opacity:1;stroke-width:1.6171869px"
         id="path2896" />
      <path
         d="m 234.38786,-952.46294 v -2.12376 h -13.03992 v 2.12376 z"
         style="font-style:normal;font-variant:normal;font-weight:300;font-stretch:normal;font-size:42.47529221px;line-height:1.25;font-family:'Exo 2';-inkscape-font-specification:'Exo 2 Light';text-align:start;text-anchor:start;fill:#ffffff;fill-opacity:1;stroke-width:1.6171869px"
         id="path2898" />
      <path
         d="m 256.85597,-972.129 h -2.80337 v 23.70122 c 0,2.33614 -1.18931,3.56792 -3.65288,3.56792 h -2.25119 l -0.29733,1.95386 c 0.89199,0.21238 2.50605,0.42476 3.48298,0.42476 3.6104,0 5.52179,-2.08129 5.52179,-6.03149 z"
         style="font-style:normal;font-variant:normal;font-weight:300;font-stretch:normal;font-size:42.47529221px;line-height:1.25;font-family:'Exo 2';-inkscape-font-specification:'Exo 2 Light';text-align:start;text-anchor:start;fill:#ffffff;fill-opacity:1;stroke-width:1.6171869px"
         id="path2900" />
      <path
         d="m 281.10868,-963.37909 h -2.67595 v 15.37606 c -3.27059,2.20871 -5.47931,3.35555 -7.9004,3.35555 -2.67594,0 -3.7803,-1.14684 -3.7803,-3.99268 v -14.73893 h -2.67595 v 15.46101 c 0,3.69535 1.91139,5.60674 5.56427,5.60674 3.01574,0 5.94654,-1.23178 9.13219,-3.73783 l 0.21237,3.22813 h 2.12377 z"
         style="font-style:normal;font-variant:normal;font-weight:300;font-stretch:normal;font-size:42.47529221px;line-height:1.25;font-family:'Exo 2';-inkscape-font-specification:'Exo 2 Light';text-align:start;text-anchor:start;fill:#ffffff;fill-opacity:1;stroke-width:1.6171869px"
         id="path2902" />
      <path
         d="m 290.98022,-972.55375 h -2.67595 v 25.14537 c 0,3.18565 1.86892,4.92714 4.75724,4.92714 0.93445,0 2.71842,-0.1699 3.39802,-0.42476 l -0.29733,-2.03881 h -2.16624 c -1.95386,0 -3.01574,-1.01941 -3.01574,-2.97327 z"
         style="font-style:normal;font-variant:normal;font-weight:300;font-stretch:normal;font-size:42.47529221px;line-height:1.25;font-family:'Exo 2';-inkscape-font-specification:'Exo 2 Light';text-align:start;text-anchor:start;fill:#ffffff;fill-opacity:1;stroke-width:1.6171869px"
         id="path2904" />
      <path
         d="m 317.12907,-963.37909 h -2.88832 l -6.03149,16.01319 -0.89198,2.42109 h -0.59466 c -0.21237,-0.80703 -0.55217,-1.61406 -0.8495,-2.37862 l -6.07397,-16.05566 h -2.88832 l 7.81546,19.83597 c 0.1699,0.46722 0.55217,0.72208 1.06188,0.72208 h 0.6796 l -0.5097,1.14683 c -1.06188,2.71842 -2.59099,4.75723 -5.98902,5.90406 l 0.33981,1.74149 c 4.6298,-0.5097 6.75357,-3.7803 8.15525,-7.34822 z"
         style="font-style:normal;font-variant:normal;font-weight:300;font-stretch:normal;font-size:42.47529221px;line-height:1.25;font-family:'Exo 2';-inkscape-font-specification:'Exo 2 Light';text-align:start;text-anchor:start;fill:#ffffff;fill-opacity:1;stroke-width:1.6171869px"
         id="path2906" />
      <path
         d="m 338.26316,-972.6387 c -2.54852,0 -4.71476,0.1699 -8.74991,1.10436 l 0.25485,2.16624 c 3.65288,-0.67961 5.64922,-0.80703 8.36763,-0.80703 3.65288,0 5.98902,0.38227 6.11645,3.69535 0.0849,3.05822 -1.65654,6.07396 -5.43684,10.32149 l -9.08971,10.36397 c -0.33981,0.38228 -0.42476,0.76456 -0.42476,1.27426 v 1.69902 h 18.94398 v -2.63347 h -10.66129 c -1.61407,0 -3.31308,0 -4.88466,0.085 l 8.91981,-10.10912 c 3.90773,-4.41743 5.47931,-7.2208 5.47931,-11.0011 0,-5.18199 -3.31307,-6.15892 -8.83486,-6.15892 z"
         style="font-style:normal;font-variant:normal;font-weight:300;font-stretch:normal;font-size:42.47529221px;line-height:1.25;font-family:'Exo 2';-inkscape-font-specification:'Exo 2 Light';text-align:start;text-anchor:start;fill:#ffffff;fill-opacity:1;stroke-width:1.6171869px"
         id="path2908" />
      <path
         d="m 363.30436,-972.6387 c -7.26327,0 -9.72684,4.58733 -9.72684,15.16368 0,10.57635 2.46357,15.16368 9.72684,15.16368 7.26328,0 9.76932,-4.58733 9.76932,-15.16368 0,-10.57635 -2.50604,-15.16368 -9.76932,-15.16368 z m 0,2.42109 c 5.30941,0 7.00842,3.73783 7.00842,12.74259 0,9.00476 -1.69901,12.74259 -7.00842,12.74259 -5.26693,0 -7.00842,-3.73783 -7.00842,-12.74259 0,-9.00476 1.74149,-12.74259 7.00842,-12.74259 z"
         style="font-style:normal;font-variant:normal;font-weight:300;font-stretch:normal;font-size:42.47529221px;line-height:1.25;font-family:'Exo 2';-inkscape-font-specification:'Exo 2 Light';text-align:start;text-anchor:start;fill:#ffffff;fill-opacity:1;stroke-width:1.6171869px"
         id="path2910" />
      <path
         d="M 387.5876,-942.82104 V -972.129 h -2.80337 l -7.64555,3.05822 0.38227,1.99634 7.43318,-2.37861 c -0.12743,0.76455 -0.1699,1.52911 -0.1699,2.33614 v 24.29587 z"
         style="font-style:normal;font-variant:normal;font-weight:300;font-stretch:normal;font-size:42.47529221px;line-height:1.25;font-family:'Exo 2';-inkscape-font-specification:'Exo 2 Light';text-align:start;text-anchor:start;fill:#ffffff;fill-opacity:1;stroke-width:1.6171869px"
         id="path2912" />
      <path
         d="m 404.17952,-972.6387 c -7.00843,0 -9.13219,3.48297 -9.13219,9.93922 0,5.77664 1.95386,9.55694 7.9004,9.55694 3.48298,0 5.60674,-0.84951 7.90041,-3.56793 -0.1699,10.06665 -2.33614,11.97804 -8.41011,11.97804 -2.76089,0 -3.69535,-0.0425 -5.60674,-0.21238 l -0.3398,2.03881 c 2.46357,0.59466 4.71476,0.59466 5.94654,0.59466 7.94288,0 11.12853,-2.29367 11.12853,-15.54596 0,-11.21348 -0.93446,-14.7814 -9.38704,-14.7814 z m -0.55218,17.24497 c -4.62981,0 -5.90407,-2.63347 -5.90407,-7.26328 0,-4.7997 1.10436,-7.60307 6.41377,-7.60307 6.28634,0 6.7111,2.76089 6.7111,11.59575 -2.67595,2.54852 -4.50238,3.2706 -7.2208,3.2706 z"
         style="font-style:normal;font-variant:normal;font-weight:300;font-stretch:normal;font-size:42.47529221px;line-height:1.25;font-family:'Exo 2';-inkscape-font-specification:'Exo 2 Light';text-align:start;text-anchor:start;fill:#ffffff;fill-opacity:1;stroke-width:1.6171869px"
         id="path2914" />
    </g>
    <g
       aria-label="Galaxy 
Community 
Conference"
       style="font-style:normal;font-variant:normal;font-weight:200;font-stretch:normal;font-size:59.46540833px;line-height:0.01%;font-family:Exo;-inkscape-font-specification:'Exo Ultra-Light';text-align:start;letter-spacing:0px;word-spacing:0px;text-anchor:start;fill:#ffffff;fill-opacity:1;stroke:none;stroke-width:1.6171869px;stroke-linecap:butt;stroke-linejoin:miter;stroke-opacity:1"
       id="text2817">
      <path
         d="M 40.166315,-1224.0548 H 24.651327 v 25.9639 c -3.5885,2.0053 -7.91581,3.694 -13.087472,3.694 -9.0767961,0 -11.92648777,-5.5938 -11.92648777,-23.7474 0,-21.1088 4.01067717,-24.2752 16.14825277,-24.2752 6.332648,0 13.404105,0.2111 20.581107,0.5278 l 1.266529,-11.821 c -6.860369,-1.8998 -13.826282,-2.533 -22.375357,-2.533 -23.9585185,0 -32.613138,8.7601 -32.613138,37.5737 0,26.7026 6.860369,37.9959 23.2197103,37.9959 10.0266927,0 17.3092387,-4.8551 21.0032827,-8.7602 l 1.477618,7.3881 h 11.820943 z"
         style="font-style:normal;font-variant:normal;font-weight:bold;font-stretch:normal;font-size:105.54413605px;line-height:1;font-family:'Exo 2';-inkscape-font-specification:'Exo 2 Bold';text-align:start;text-anchor:start;fill:#ffffff;fill-opacity:1;stroke-width:1.6171869px"
         id="path2825" />
      <path
         d="m 79.168175,-1235.5591 c -7.282545,0 -19.525665,1.161 -27.124843,2.5331 l 1.477618,10.5544 c 8.337987,-0.5277 16.992606,-0.8444 21.95318,-0.8444 6.649281,0 8.443531,1.4776 8.549075,6.7548 v 2.322 H 65.447437 c -9.921149,0 -15.937164,4.8551 -15.937164,13.193 v 5.2772 c 0,9.7101 7.282545,14.9873 16.992606,14.9873 9.182339,0 15.514988,-4.855 19.209032,-9.1823 l 1.583162,7.9158 h 12.348664 v -34.4074 c 0,-14.6706 -7.071457,-19.1035 -20.475562,-19.1035 z m -14.248458,35.6739 c 0,-2.9552 1.266529,-4.855 5.066118,-4.9606 h 14.03737 v 7.2826 c -4.432854,3.3774 -9.393428,5.0661 -12.981929,5.0661 -4.221765,0 -6.121559,-1.6887 -6.121559,-5.3827 z"
         style="font-style:normal;font-variant:normal;font-weight:bold;font-stretch:normal;font-size:105.54413605px;line-height:1;font-family:'Exo 2';-inkscape-font-specification:'Exo 2 Bold';text-align:start;text-anchor:start;fill:#ffffff;fill-opacity:1;stroke-width:1.6171869px"
         id="path2827" />
      <path
         d="m 127.55027,-1255.9291 h -15.51499 v 60.7934 c 0,9.1823 5.80493,14.354 14.98727,14.354 3.37741,0 9.8156,-0.7388 12.45421,-2.1109 l -1.79425,-10.871 h -4.22177 c -3.90513,0 -5.91047,-1.6887 -5.91047,-5.2772 z"
         style="font-style:normal;font-variant:normal;font-weight:bold;font-stretch:normal;font-size:105.54413605px;line-height:1;font-family:'Exo 2';-inkscape-font-specification:'Exo 2 Bold';text-align:start;text-anchor:start;fill:#ffffff;fill-opacity:1;stroke-width:1.6171869px"
         id="path2829" />
      <path
         d="m 173.37456,-1235.5591 c -7.28255,0 -19.52567,1.161 -27.12485,2.5331 l 1.47762,10.5544 c 8.33799,-0.5277 16.99261,-0.8444 21.95318,-0.8444 6.64928,0 8.44353,1.4776 8.54908,6.7548 v 2.322 h -18.57577 c -9.92115,0 -15.93716,4.8551 -15.93716,13.193 v 5.2772 c 0,9.7101 7.28254,14.9873 16.9926,14.9873 9.18234,0 15.51499,-4.855 19.20903,-9.1823 l 1.58317,7.9158 h 12.34866 v -34.4074 c 0,-14.6706 -7.07146,-19.1035 -20.47556,-19.1035 z m -14.24846,35.6739 c 0,-2.9552 1.26653,-4.855 5.06612,-4.9606 h 14.03737 v 7.2826 c -4.43286,3.3774 -9.39343,5.0661 -12.98193,5.0661 -4.22177,0 -6.12156,-1.6887 -6.12156,-5.3827 z"
         style="font-style:normal;font-variant:normal;font-weight:bold;font-stretch:normal;font-size:105.54413605px;line-height:1;font-family:'Exo 2';-inkscape-font-specification:'Exo 2 Bold';text-align:start;text-anchor:start;fill:#ffffff;fill-opacity:1;stroke-width:1.6171869px"
         id="path2831" />
      <path
         d="m 229.778,-1203.8959 12.34866,21.8477 h 16.04271 l -16.04271,-26.7027 14.88173,-25.3306 h -15.93717 l -11.08213,20.0534 h -1.05544 l -11.08214,-20.0534 h -15.93716 l 14.88172,25.3306 -16.04271,26.7027 h 16.04271 l 12.34866,-21.8477 z"
         style="font-style:normal;font-variant:normal;font-weight:bold;font-stretch:normal;font-size:105.54413605px;line-height:1;font-family:'Exo 2';-inkscape-font-specification:'Exo 2 Bold';text-align:start;text-anchor:start;fill:#ffffff;fill-opacity:1;stroke-width:1.6171869px"
         id="path2833" />
      <path
         d="m 317.74411,-1234.0815 h -16.67597 l -9.60452,33.6686 c -0.52772,2.2164 -1.26653,5.1717 -2.11088,7.8103 h -1.37208 c -0.42217,-2.6386 -0.94989,-5.2772 -1.58316,-7.8103 l -9.71006,-33.6686 h -16.67597 l 16.9926,48.2337 c 0.73881,2.322 2.63861,3.7996 5.06612,3.7996 h 2.95524 l -0.21109,0.4222 c -2.63861,5.9104 -6.96591,9.3934 -15.51499,11.6098 l 1.26653,9.1824 c 17.09815,2.0053 25.22505,-10.3434 28.708,-20.4756 z"
         style="font-style:normal;font-variant:normal;font-weight:bold;font-stretch:normal;font-size:105.54413605px;line-height:1;font-family:'Exo 2';-inkscape-font-specification:'Exo 2 Bold';text-align:start;text-anchor:start;fill:#ffffff;fill-opacity:1;stroke-width:1.6171869px"
         id="path2835" />
      <path
         d="m 6.8847308,-1152.9274 c -17.5027358,0 -23.8353838,8.2676 -23.8353838,31.3994 0,23.1317 6.332648,31.3994 23.8353838,31.3994 7.9158102,0 12.6652962,-0.6157 17.7665962,-2.023 l -0.791581,-5.8049 c -4.925393,0.7036 -9.498972,0.9675 -16.9750152,0.9675 -11.8737151,0 -15.6557133,-6.0688 -15.6557133,-24.539 0,-18.4702 3.7819982,-24.539 15.6557133,-24.539 7.0362752,0 10.4664602,0.2638 15.7436672,0.7915 l 0.791581,-5.8928 c -5.013347,-1.2314 -8.883298,-1.7591 -16.5352482,-1.7591 z"
         style="font-style:normal;font-variant:normal;font-weight:normal;font-stretch:normal;font-size:87.95344543px;line-height:1;font-family:'Exo 2';-inkscape-font-specification:'Exo 2, ';text-align:start;text-anchor:start;fill:#ffffff;fill-opacity:1;stroke-width:1.6171869px"
         id="path2837" />
      <path
         d="m 52.823915,-1135.0729 c -14.688225,0 -20.141339,6.1568 -20.141339,22.5161 0,16.4473 5.453114,22.5161 20.141339,22.5161 14.776179,0 20.141339,-6.0688 20.141339,-22.5161 0,-16.3593 -5.36516,-22.5161 -20.141339,-22.5161 z m 0,6.3327 c 9.323065,0 12.401436,3.694 12.401436,16.1834 0,12.4894 -3.078371,16.1835 -12.401436,16.1835 -9.323065,0 -12.313482,-3.6941 -12.313482,-16.1835 0,-12.4894 2.990417,-16.1834 12.313482,-16.1834 z"
         style="font-style:normal;font-variant:normal;font-weight:normal;font-stretch:normal;font-size:87.95344543px;line-height:1;font-family:'Exo 2';-inkscape-font-specification:'Exo 2, ';text-align:start;text-anchor:start;fill:#ffffff;fill-opacity:1;stroke-width:1.6171869px"
         id="path2839" />
      <path
         d="m 136.85106,-1135.0729 c -5.71697,0 -11.34599,2.5507 -17.23887,7.652 -1.23135,-5.1013 -4.92539,-7.652 -10.81827,-7.652 -5.98084,0 -11.521906,2.6387 -17.50274,7.8279 l -0.439767,-6.7724 h -6.156741 v 42.8333 h 7.476043 v -30.9596 c 6.596508,-4.7495 9.762835,-6.5965 14.072555,-6.5965 4.48562,0 6.68446,2.0229 6.68446,7.564 v 29.9921 h 7.21218 v -30.9596 c 6.50856,-4.6615 9.67488,-6.5965 14.07255,-6.5965 4.74949,0 6.59651,2.2868 6.68446,7.564 v 29.9921 h 7.38809 v -32.103 c 0,-7.7399 -4.04586,-11.7858 -11.43395,-11.7858 z"
         style="font-style:normal;font-variant:normal;font-weight:normal;font-stretch:normal;font-size:87.95344543px;line-height:1;font-family:'Exo 2';-inkscape-font-specification:'Exo 2, ';text-align:start;text-anchor:start;fill:#ffffff;fill-opacity:1;stroke-width:1.6171869px"
         id="path2841" />
      <path
         d="m 213.98211,-1135.0729 c -5.71698,0 -11.346,2.5507 -17.23888,7.652 -1.23135,-5.1013 -4.92539,-7.652 -10.81827,-7.652 -5.98084,0 -11.5219,2.6387 -17.50274,7.8279 l -0.43976,-6.7724 h -6.15675 v 42.8333 h 7.47605 v -30.9596 c 6.59651,-4.7495 9.76283,-6.5965 14.07255,-6.5965 4.48562,0 6.68446,2.0229 6.68446,7.564 v 29.9921 h 7.21218 v -30.9596 c 6.50856,-4.6615 9.67488,-6.5965 14.07255,-6.5965 4.74949,0 6.59651,2.2868 6.68447,7.564 v 29.9921 h 7.38809 v -32.103 c 0,-7.7399 -4.04586,-11.7858 -11.43395,-11.7858 z"
         style="font-style:normal;font-variant:normal;font-weight:normal;font-stretch:normal;font-size:87.95344543px;line-height:1;font-family:'Exo 2';-inkscape-font-specification:'Exo 2, ';text-align:start;text-anchor:start;fill:#ffffff;fill-opacity:1;stroke-width:1.6171869px"
         id="path2843" />
      <path
         d="m 275.3695,-1134.0174 h -7.47604 v 31.3114 c -6.2447,4.0459 -10.37851,6.1568 -14.95209,6.1568 -4.92539,0 -6.86037,-1.935 -6.77242,-7.3881 v -30.0801 h -7.47604 v 32.191 c 0,7.7399 3.95791,11.7857 11.69781,11.7857 6.15674,0 12.04962,-2.5506 18.47022,-7.3881 l 0.52772,6.2447 h 5.98084 z"
         style="font-style:normal;font-variant:normal;font-weight:normal;font-stretch:normal;font-size:87.95344543px;line-height:1;font-family:'Exo 2';-inkscape-font-specification:'Exo 2, ';text-align:start;text-anchor:start;fill:#ffffff;fill-opacity:1;stroke-width:1.6171869px"
         id="path2845" />
      <path
         d="m 315.15196,-1135.0729 c -6.33265,0 -12.6653,2.8146 -19.17385,7.8279 l -0.52773,-6.7724 h -6.33264 v 42.8333 h 7.47604 v -30.8716 c 6.86037,-4.1339 11.43395,-6.6845 16.53525,-6.6845 4.39767,0 6.15674,1.847 6.15674,7.564 v 29.9921 h 7.47604 v -32.103 c 0,-7.7399 -4.04586,-11.7858 -11.60985,-11.7858 z"
         style="font-style:normal;font-variant:normal;font-weight:normal;font-stretch:normal;font-size:87.95344543px;line-height:1;font-family:'Exo 2';-inkscape-font-specification:'Exo 2, ';text-align:start;text-anchor:start;fill:#ffffff;fill-opacity:1;stroke-width:1.6171869px"
         id="path2847" />
      <path
         d="m 342.42439,-1152.2238 c -1.49521,0 -2.28679,0.8796 -2.28679,2.2868 v 5.0134 c 0,1.5831 0.79158,2.2868 2.28679,2.2868 h 3.51814 c 1.58316,0 2.28679,-0.7037 2.28679,-2.2868 v -5.0134 c 0,-1.4072 -0.70363,-2.2868 -2.28679,-2.2868 z m 5.45312,61.0397 v -42.8333 h -7.38809 v 42.8333 z"
         style="font-style:normal;font-variant:normal;font-weight:normal;font-stretch:normal;font-size:87.95344543px;line-height:1;font-family:'Exo 2';-inkscape-font-specification:'Exo 2, ';text-align:start;text-anchor:start;fill:#ffffff;fill-opacity:1;stroke-width:1.6171869px"
         id="path2849" />
      <path
         d="m 372.68448,-1128.1245 h 13.63279 v -5.8929 h -13.63279 v -12.6653 h -7.47604 v 12.6653 l -7.7399,0.4398 v 5.4531 h 7.7399 v 26.1221 c 0,7.4761 3.782,11.6099 10.99418,11.6099 2.11088,0 6.86037,-0.3518 9.67488,-1.1434 l -0.87953,-5.717 h -6.50856 c -4.22177,0 -5.80493,-1.5831 -5.80493,-5.7169 z"
         style="font-style:normal;font-variant:normal;font-weight:normal;font-stretch:normal;font-size:87.95344543px;line-height:1;font-family:'Exo 2';-inkscape-font-specification:'Exo 2, ';text-align:start;text-anchor:start;fill:#ffffff;fill-opacity:1;stroke-width:1.6171869px"
         id="path2851" />
      <path
         d="m 433.44795,-1134.0174 h -8.09172 l -11.17009,31.9271 -1.84702,5.1892 h -1.23135 c -0.35181,-1.759 -0.96749,-3.4301 -1.58316,-5.1892 l -11.346,-31.9271 h -8.00376 l 15.56776,40.8983 c 0.35181,1.2314 1.40726,1.935 2.6386,1.935 h 1.75907 l -0.79158,1.847 c -2.19883,5.3652 -5.54107,9.1472 -12.48939,11.346 l 0.70363,4.9254 c 10.64237,-0.5277 15.91957,-8.1796 18.73408,-15.7436 z"
         style="font-style:normal;font-variant:normal;font-weight:normal;font-stretch:normal;font-size:87.95344543px;line-height:1;font-family:'Exo 2';-inkscape-font-specification:'Exo 2, ';text-align:start;text-anchor:start;fill:#ffffff;fill-opacity:1;stroke-width:1.6171869px"
         id="path2853" />
      <path
         d="m 6.8847308,-1064.9739 c -17.5027358,0 -23.8353838,8.2676 -23.8353838,31.3994 0,23.1317 6.332648,31.3994 23.8353838,31.3994 7.9158102,0 12.6652962,-0.6157 17.7665962,-2.023 l -0.791581,-5.8049 c -4.925393,0.7036 -9.498972,0.9675 -16.9750152,0.9675 -11.8737151,0 -15.6557133,-6.0688 -15.6557133,-24.539 0,-18.4703 3.7819982,-24.539 15.6557133,-24.539 7.0362752,0 10.4664602,0.2638 15.7436672,0.7915 l 0.791581,-5.8928 c -5.013347,-1.2314 -8.883298,-1.7591 -16.5352482,-1.7591 z"
         style="font-style:normal;font-variant:normal;font-weight:normal;font-stretch:normal;font-size:87.95344543px;line-height:1;font-family:'Exo 2';-inkscape-font-specification:'Exo 2, ';text-align:start;text-anchor:start;fill:#ffffff;fill-opacity:1;stroke-width:1.6171869px"
         id="path2855" />
      <path
         d="m 52.823915,-1047.1194 c -14.688225,0 -20.141339,6.1568 -20.141339,22.5161 0,16.4473 5.453114,22.5161 20.141339,22.5161 14.776179,0 20.141339,-6.0688 20.141339,-22.5161 0,-16.3593 -5.36516,-22.5161 -20.141339,-22.5161 z m 0,6.3327 c 9.323065,0 12.401436,3.694 12.401436,16.1834 0,12.4894 -3.078371,16.1835 -12.401436,16.1835 -9.323065,0 -12.313482,-3.6941 -12.313482,-16.1835 0,-12.4894 2.990417,-16.1834 12.313482,-16.1834 z"
         style="font-style:normal;font-variant:normal;font-weight:normal;font-stretch:normal;font-size:87.95344543px;line-height:1;font-family:'Exo 2';-inkscape-font-specification:'Exo 2, ';text-align:start;text-anchor:start;fill:#ffffff;fill-opacity:1;stroke-width:1.6171869px"
         id="path2857" />
      <path
         d="m 110.72889,-1047.1194 c -6.33265,0 -12.665295,2.8146 -19.17385,7.8279 l -0.52772,-6.7724 h -6.332648 v 42.8333 h 7.476043 v -30.8717 c 6.860368,-4.1338 11.433945,-6.6844 16.535245,-6.6844 4.39767,0 6.15674,1.847 6.15674,7.564 v 29.9921 h 7.47605 v -32.103 c 0,-7.7399 -4.04586,-11.7858 -11.60986,-11.7858 z"
         style="font-style:normal;font-variant:normal;font-weight:normal;font-stretch:normal;font-size:87.95344543px;line-height:1;font-family:'Exo 2';-inkscape-font-specification:'Exo 2, ';text-align:start;text-anchor:start;fill:#ffffff;fill-opacity:1;stroke-width:1.6171869px"
         id="path2859" />
      <path
         d="m 162.98011,-1060.1365 0.61567,-5.541 c -3.34223,-0.4398 -9.23511,-0.6157 -12.04962,-0.6157 -9.14716,0 -12.48939,4.5736 -12.48939,12.5773 v 7.652 l -7.7399,0.4397 v 5.4532 h 7.7399 v 36.9404 h 7.47604 v -36.9404 h 13.72074 v -5.8929 h -13.72074 v -6.8604 c 0,-5.1892 2.02293,-7.2122 7.65195,-7.2122 z"
         style="font-style:normal;font-variant:normal;font-weight:normal;font-stretch:normal;font-size:87.95344543px;line-height:1;font-family:'Exo 2';-inkscape-font-specification:'Exo 2, ';text-align:start;text-anchor:start;fill:#ffffff;fill-opacity:1;stroke-width:1.6171869px"
         id="path2861" />
      <path
         d="m 187.87506,-1008.5078 c -8.79535,0 -12.75325,-2.2868 -13.45688,-12.4894 h 19.87748 c 7.12423,0 10.29055,-4.4856 10.2026,-12.1376 0,-9.2351 -5.45312,-13.9846 -18.38227,-13.9846 -13.80869,0 -19.70157,5.5411 -19.70157,22.3402 0,16.4473 5.71697,22.6041 20.49315,22.6041 4.92539,0 12.57734,-0.7037 16.6232,-2.3748 l -0.79158,-5.0133 c -4.39767,0.6156 -10.29055,1.0554 -14.86413,1.0554 z m -1.40726,-32.2789 c 7.65195,0 10.46646,2.1988 10.55442,7.6519 0,3.1664 -0.79159,6.3327 -4.66154,6.3327 h -18.11841 c 0.26386,-10.8183 3.34223,-13.9846 12.22553,-13.9846 z"
         style="font-style:normal;font-variant:normal;font-weight:normal;font-stretch:normal;font-size:87.95344543px;line-height:1;font-family:'Exo 2';-inkscape-font-specification:'Exo 2, ';text-align:start;text-anchor:start;fill:#ffffff;fill-opacity:1;stroke-width:1.6171869px"
         id="path2863" />
      <path
         d="m 242.59172,-1047.1194 h -1.93498 c -5.80493,0 -12.13758,2.9025 -18.29432,7.8279 l -0.79158,-6.7724 h -5.80493 v 42.8333 h 7.47605 v -31.3994 c 6.77241,-3.4302 11.17009,-5.4531 16.00752,-5.4531 h 2.4627 z"
         style="font-style:normal;font-variant:normal;font-weight:normal;font-stretch:normal;font-size:87.95344543px;line-height:1;font-family:'Exo 2';-inkscape-font-specification:'Exo 2, ';text-align:start;text-anchor:start;fill:#ffffff;fill-opacity:1;stroke-width:1.6171869px"
         id="path2865" />
      <path
         d="m 269.12893,-1008.5078 c -8.79534,0 -12.75325,-2.2868 -13.45687,-12.4894 h 19.87747 c 7.12423,0 10.29056,-4.4856 10.2026,-12.1376 0,-9.2351 -5.45311,-13.9846 -18.38227,-13.9846 -13.80869,0 -19.70157,5.5411 -19.70157,22.3402 0,16.4473 5.71698,22.6041 20.49315,22.6041 4.9254,0 12.57735,-0.7037 16.62321,-2.3748 l -0.79158,-5.0133 c -4.39768,0.6156 -10.29056,1.0554 -14.86414,1.0554 z m -1.40725,-32.2789 c 7.65195,0 10.46646,2.1988 10.55441,7.6519 0,3.1664 -0.79158,6.3327 -4.66153,6.3327 h -18.11841 c 0.26386,-10.8183 3.34223,-13.9846 12.22553,-13.9846 z"
         style="font-style:normal;font-variant:normal;font-weight:normal;font-stretch:normal;font-size:87.95344543px;line-height:1;font-family:'Exo 2';-inkscape-font-specification:'Exo 2, ';text-align:start;text-anchor:start;fill:#ffffff;fill-opacity:1;stroke-width:1.6171869px"
         id="path2867" />
      <path
         d="m 323.054,-1047.1194 c -6.33265,0 -12.6653,2.8146 -19.17386,7.8279 l -0.52772,-6.7724 h -6.33264 v 42.8333 h 7.47604 v -30.8717 c 6.86037,-4.1338 11.43395,-6.6844 16.53525,-6.6844 4.39767,0 6.15674,1.847 6.15674,7.564 v 29.9921 h 7.47604 v -32.103 c 0,-7.7399 -4.04586,-11.7858 -11.60985,-11.7858 z"
         style="font-style:normal;font-variant:normal;font-weight:normal;font-stretch:normal;font-size:87.95344543px;line-height:1;font-family:'Exo 2';-inkscape-font-specification:'Exo 2, ';text-align:start;text-anchor:start;fill:#ffffff;fill-opacity:1;stroke-width:1.6171869px"
         id="path2869" />
      <path
         d="m 366.33396,-1047.1194 c -14.86413,0 -20.4052,5.8929 -20.4052,22.4282 0,16.5352 5.54107,22.5161 20.31725,22.5161 5.01334,0 10.3785,-0.7037 14.68822,-2.1989 l -0.79158,-5.0133 c -4.39767,0.7036 -10.02669,0.8795 -12.57734,0.8795 -10.2026,0 -13.72074,-3.6061 -13.72074,-16.1834 0,-12.4894 3.51814,-16.0955 13.72074,-16.0955 2.99041,0 7.7399,0.1759 11.60985,0.5277 l 0.96749,-4.8374 c -4.22177,-1.5832 -10.02669,-2.023 -13.80869,-2.023 z"
         style="font-style:normal;font-variant:normal;font-weight:normal;font-stretch:normal;font-size:87.95344543px;line-height:1;font-family:'Exo 2';-inkscape-font-specification:'Exo 2, ';text-align:start;text-anchor:start;fill:#ffffff;fill-opacity:1;stroke-width:1.6171869px"
         id="path2871" />
      <path
         d="m 409.64828,-1008.5078 c -8.79534,0 -12.75325,-2.2868 -13.45688,-12.4894 h 19.87748 c 7.12423,0 10.29056,-4.4856 10.2026,-12.1376 0,-9.2351 -5.45311,-13.9846 -18.38227,-13.9846 -13.80869,0 -19.70157,5.5411 -19.70157,22.3402 0,16.4473 5.71697,22.6041 20.49315,22.6041 4.9254,0 12.57735,-0.7037 16.6232,-2.3748 l -0.79158,-5.0133 c -4.39767,0.6156 -10.29055,1.0554 -14.86413,1.0554 z m -1.40725,-32.2789 c 7.65195,0 10.46646,2.1988 10.55441,7.6519 0,3.1664 -0.79158,6.3327 -4.66153,6.3327 H 396.0155 c 0.26386,-10.8183 3.34223,-13.9846 12.22553,-13.9846 z"
         style="font-style:normal;font-variant:normal;font-weight:normal;font-stretch:normal;font-size:87.95344543px;line-height:1;font-family:'Exo 2';-inkscape-font-specification:'Exo 2, ';text-align:start;text-anchor:start;fill:#ffffff;fill-opacity:1;stroke-width:1.6171869px"
         id="path2873" />
    </g>
  </g>
</svg>
