<?xml version="1.0" encoding="UTF-8" standalone="no"?>
<!-- Created with Inkscape (http://www.inkscape.org/) -->

<svg
   xmlns:dc="http://purl.org/dc/elements/1.1/"
   xmlns:cc="http://creativecommons.org/ns#"
   xmlns:rdf="http://www.w3.org/1999/02/22-rdf-syntax-ns#"
   xmlns:svg="http://www.w3.org/2000/svg"
   xmlns="http://www.w3.org/2000/svg"
   xmlns:sodipodi="http://sodipodi.sourceforge.net/DTD/sodipodi-0.dtd"
   xmlns:inkscape="http://www.inkscape.org/namespaces/inkscape"
   width="210mm"
   height="297mm"
   viewBox="0 0 210 297"
   version="1.1"
   id="svg1642"
   inkscape:export-filename="/Users/bebatut/Documents/com/conf/2019/gcc2019/com/program/logos/bioinfo.png"
   inkscape:export-xdpi="300"
   inkscape:export-ydpi="300"
   inkscape:version="0.92.2 5c3e80d, 2017-08-06"
   sodipodi:docname="bioinfo.svg">
  <defs
     id="defs1636" />
  <sodipodi:namedview
     id="base"
     pagecolor="#ffffff"
     bordercolor="#666666"
     borderopacity="1.0"
     inkscape:pageopacity="0.0"
     inkscape:pageshadow="2"
     inkscape:zoom="0.35"
     inkscape:cx="-114.28571"
     inkscape:cy="560"
     inkscape:document-units="mm"
     inkscape:current-layer="layer1"
     showgrid="false"
     inkscape:window-width="1920"
     inkscape:window-height="1156"
     inkscape:window-x="23"
     inkscape:window-y="66"
     inkscape:window-maximized="0" />
  <metadata
     id="metadata1639">
    <rdf:RDF>
      <cc:Work
         rdf:about="">
        <dc:format>image/svg+xml</dc:format>
        <dc:type
           rdf:resource="http://purl.org/dc/dcmitype/StillImage" />
        <dc:title></dc:title>
      </cc:Work>
    </rdf:RDF>
  </metadata>
  <g
     inkscape:label="Layer 1"
     inkscape:groupmode="layer"
     id="layer1">
    <g
       style="filter:url(#filter4277);enable-background:new"
       transform="matrix(0.02677183,0,0,0.02677184,58.084195,127.54251)"
       id="g4953">
      <g
         id="g4887">
        <g
           id="g4889">
          <path
             style="fill:#2c3143;fill-opacity:1"
             inkscape:connector-curvature="0"
             d="m 205.453,289.37 12.675,-3.31 14.392,-24.873 -3.322,-12.664 c 0,0 -9.575,-5.547 -14.375,-8.309 -0.128,-2.75 -0.403,-5.488 -0.993,-8.133 3.807,-3.241 11.397,-9.745 11.397,-9.745 v -13.09 l -18.712,-21.813 h -13.107 c 0,0 -6.218,5.319 -9.301,7.987 -3.369,-1.635 -6.937,-2.978 -10.667,-3.994 -0.298,-3.696 -0.905,-11.093 -0.905,-11.093 l -9.271,-9.26 -28.626,2.324 -9.266,9.266 c 0,0 0.777,9.709 1.174,14.573 -2.797,1.594 -5.453,3.398 -7.917,5.395 -4.005,-1.839 -12.062,-5.523 -12.062,-5.523 l -12.688,3.322 -11.98,26.127 -0.42,1.757 3.743,10.907 c 0,0 9.365,4.268 14.047,6.399 0.216,3.083 0.695,6.095 1.448,9.003 -3.573,3.024 -10.713,9.073 -10.713,9.073 v 13.107 l 18.572,21.924 c 0,0 10.795,1.273 11.368,0.958 0.59,-0.327 1.746,-0.958 1.746,-0.958 0,0 6.784,-5.733 10.176,-8.618 2.861,1.261 5.838,2.359 8.945,3.176 0.339,3.854 1.051,11.56 1.051,11.56 l 9.26,9.272 28.574,-2.616 9.271,-9.249 c 0,0 -0.899,-9.925 -1.354,-14.894 2.347,-1.349 4.606,-2.797 6.72,-4.438 3.693,2.159 11.12,6.45 11.12,6.45 z m -50.007,-17.883 c -15.951,0 -28.901,-12.927 -28.901,-28.889 0,-15.951 12.95,-28.889 28.901,-28.889 15.962,0 28.913,12.938 28.913,28.889 -0.001,15.962 -12.951,28.889 -28.913,28.889 z"
             id="path4891" />
          <path
             style="fill:#2c3143;fill-opacity:1"
             inkscape:connector-curvature="0"
             d="m 294.129,303.12 5.646,-1.483 6.399,-11.07 -1.495,-5.628 c 0,0 -4.25,-2.464 -6.381,-3.696 -0.059,-1.244 -0.187,-2.452 -0.427,-3.626 1.67,-1.448 5.045,-4.338 5.045,-4.338 v -5.827 l -8.309,-9.709 h -5.827 c 0,0 -2.773,2.371 -4.134,3.55 -1.506,-0.724 -3.1,-1.313 -4.758,-1.751 -0.123,-1.652 -0.386,-4.939 -0.386,-4.939 l -4.127,-4.128 -12.734,1.04 -4.11,4.116 c 0,0 0.333,4.314 0.514,6.492 -1.244,0.707 -2.417,1.518 -3.515,2.406 -1.792,-0.817 -5.372,-2.464 -5.372,-2.464 l -5.652,1.483 -5.359,11.63 -0.193,0.776 1.687,4.846 c 0,0 4.163,1.897 6.23,2.843 0.093,1.378 0.298,2.715 0.648,4.017 -1.582,1.331 -4.764,4.04 -4.764,4.04 v 5.815 l 8.256,9.739 c 0,0 4.805,0.583 5.056,0.444 0.263,-0.164 0.776,-0.444 0.776,-0.444 0,0 3.024,-2.546 4.531,-3.818 1.255,0.572 2.586,1.039 3.97,1.413 0.169,1.717 0.479,5.138 0.479,5.138 l 4.116,4.134 12.711,-1.168 4.122,-4.134 c 0,0 -0.392,-4.402 -0.607,-6.609 1.062,-0.619 2.055,-1.25 2.978,-1.985 1.658,0.98 4.986,2.895 4.986,2.895 z m -22.245,-7.964 c -7.111,0 -12.862,-5.751 -12.862,-12.851 0,-7.105 5.751,-12.845 12.862,-12.845 7.094,0 12.833,5.739 12.833,12.845 0,7.1 -5.739,12.851 -12.833,12.851 z"
             id="path4893" />
          <polygon
             style="fill:#2c3143;fill-opacity:1"
             points="172.506,415.232 172.506,486.124 311.545,486.124 311.545,415.232 342.069,415.232 342.069,362.289 52.074,362.289 52.074,123.736 342.069,123.736 342.069,70.804 0,70.804 0,415.232 "
             id="polygon4895" />
          <rect
             style="fill:#2c3143;fill-opacity:1"
             x="143.08"
             y="487.50101"
             width="199.013"
             height="14.573"
             id="rect4897" />
          <path
             style="fill:#2c3143;fill-opacity:1"
             inkscape:connector-curvature="0"
             d="m 514.773,393.408 c 45.611,-21.463 59.238,-72.516 59.238,-102.794 0,-25.549 -12.833,-83.865 -64.832,-105.596 46.65,-24.294 61.749,-85.36 62.578,-121.319 l -25.035,-0.596 c -0.117,4.373 -3.667,107.423 -82.207,107.423 -78.809,0 -84.414,-103.284 -84.612,-107.674 l -24.989,1.086 c 1.518,35.744 17.668,96.33 64.271,120.794 -44.863,17.924 -62.04,62.98 -62.04,105.87 0,31.353 12.926,78.938 55.641,100.937 -43.029,25.83 -57.077,84.029 -57.895,118.78 l 25.035,0.583 c 0.117,-4.391 3.679,-107.429 82.207,-107.429 78.82,0 84.414,103.284 84.612,107.687 l 24.989,-1.098 C 570.31,476.222 555.83,420.054 514.773,393.408 Z M 382.168,290.614 c 0,-26.758 8.022,-88.974 82.23,-88.974 83.468,0 84.577,88.092 84.577,88.974 0,3.585 -0.923,87.847 -82.218,87.847 -80.501,-0.001 -84.589,-73.192 -84.589,-87.847 z"
             id="path4899" />
          <path
             style="fill:#2c3143;fill-opacity:1"
             inkscape:connector-curvature="0"
             d="m 434.528,356.158 h 62.11 c 10.312,-4.787 17.691,-11.98 23.074,-19.828 H 410.544 c 5.453,7.918 13.172,15.051 23.984,19.828 z"
             id="path4901" />
          <path
             style="fill:#2c3143;fill-opacity:1"
             inkscape:connector-curvature="0"
             d="m 532.803,300.341 h -134.94 c 0.643,5.593 1.962,12.553 4.554,19.828 H 527.97 c 2.731,-7.451 4.121,-14.41 4.833,-19.828 z"
             id="path4903" />
          <path
             style="fill:#2c3143;fill-opacity:1"
             inkscape:connector-curvature="0"
             d="m 529.439,266.332 h -129.37 c -1.739,7.222 -2.499,14.158 -2.721,19.833 H 533.34 c -0.397,-4.361 -1.401,-11.572 -3.901,-19.833 z"
             id="path4905" />
          <path
             style="fill:#2c3143;fill-opacity:1"
             inkscape:connector-curvature="0"
             d="m 505.654,230.348 h -83.749 c -7.263,5.564 -12.366,12.506 -16.032,19.84 h 116.736 c -4.017,-7.234 -9.47,-14.194 -16.955,-19.84 z"
             id="path4907" />
          <path
             style="fill:#2c3143;fill-opacity:1"
             inkscape:connector-curvature="0"
             d="m 434.762,147.546 h 62.1 c 10.322,-4.793 17.702,-11.969 23.073,-19.828 H 410.777 c 5.465,7.906 13.161,15.046 23.985,19.828 z"
             id="path4909" />
          <path
             style="fill:#2c3143;fill-opacity:1"
             inkscape:connector-curvature="0"
             d="m 528.202,111.569 c 2.732,-7.461 4.134,-14.444 4.823,-19.839 H 398.107 c 0.643,5.582 1.962,12.541 4.555,19.839 z"
             id="path4911" />
          <path
             style="fill:#2c3143;fill-opacity:1"
             inkscape:connector-curvature="0"
             d="m 398.972,471.025 c -1.739,7.229 -2.499,14.164 -2.721,19.84 h 135.968 c -0.373,-4.344 -1.377,-11.572 -3.877,-19.84 z"
             id="path4913" />
          <path
             style="fill:#2c3143;fill-opacity:1"
             inkscape:connector-curvature="0"
             d="m 504.545,435.048 h -83.749 c -7.251,5.57 -12.354,12.506 -16.021,19.839 H 521.5 c -4.018,-7.227 -9.482,-14.187 -16.955,-19.839 z"
             id="path4915" />
        </g>
      </g>
      <g
         id="g4917" />
      <g
         id="g4919" />
      <g
         id="g4921" />
      <g
         id="g4923" />
      <g
         id="g4925" />
      <g
         id="g4927" />
      <g
         id="g4929" />
      <g
         id="g4931" />
      <g
         id="g4933" />
      <g
         id="g4935" />
      <g
         id="g4937" />
      <g
         id="g4939" />
      <g
         id="g4941" />
      <g
         id="g4943" />
      <g
         id="g4945" />
    </g>
  </g>
</svg>
