<?xml version="1.0" encoding="UTF-8" standalone="no"?>
<!-- Created with Inkscape (http://www.inkscape.org/) -->

<svg
   xmlns:dc="http://purl.org/dc/elements/1.1/"
   xmlns:cc="http://creativecommons.org/ns#"
   xmlns:rdf="http://www.w3.org/1999/02/22-rdf-syntax-ns#"
   xmlns:svg="http://www.w3.org/2000/svg"
   xmlns="http://www.w3.org/2000/svg"
   xmlns:sodipodi="http://sodipodi.sourceforge.net/DTD/sodipodi-0.dtd"
   xmlns:inkscape="http://www.inkscape.org/namespaces/inkscape"
   width="210mm"
   height="297mm"
   viewBox="0 0 210 297"
   version="1.1"
   id="svg3019"
   inkscape:version="0.92.2 5c3e80d, 2017-08-06"
   sodipodi:docname="genomics.svg"
   inkscape:export-filename="/Users/bebatut/Documents/com/conf/2019/gcc2019/com/program/logos/genomics.png"
   inkscape:export-xdpi="932.0918"
   inkscape:export-ydpi="932.0918">
  <defs
     id="defs3013" />
  <sodipodi:namedview
     id="base"
     pagecolor="#ffffff"
     bordercolor="#666666"
     borderopacity="1.0"
     inkscape:pageopacity="0.0"
     inkscape:pageshadow="2"
     inkscape:zoom="0.35"
     inkscape:cx="-628.57142"
     inkscape:cy="560"
     inkscape:document-units="mm"
     inkscape:current-layer="layer1"
     showgrid="false"
     inkscape:window-width="1280"
     inkscape:window-height="755"
     inkscape:window-x="1920"
     inkscape:window-y="1"
     inkscape:window-maximized="1" />
  <metadata
     id="metadata3016">
    <rdf:RDF>
      <cc:Work
         rdf:about="">
        <dc:format>image/svg+xml</dc:format>
        <dc:type
           rdf:resource="http://purl.org/dc/dcmitype/StillImage" />
        <dc:title />
      </cc:Work>
    </rdf:RDF>
  </metadata>
  <g
     inkscape:label="Layer 1"
     inkscape:groupmode="layer"
     id="layer1">
    <g
       transform="matrix(0.0325044,0,0,0.0325044,90.984301,77.287863)"
       id="g4752"
       style="filter:url(#filter4277);enable-background:new">
      <g
         id="g4692">
        <g
           id="g4694">
          <path
             style="fill:#2c3143;fill-opacity:1"
             inkscape:connector-curvature="0"
             d="m 427.647,367.169 -78.534,-78.993 c 10.978,-18.882 17.371,-40.76 17.371,-64.176 0,-70.692 -57.308,-128 -128,-128 -70.692,0 -128,57.308 -128,128 0,70.692 57.308,128 128,128 24.08,0 46.526,-6.773 65.764,-18.336 l 78.168,78.627 c 8.306,8.324 21.787,8.341 30.114,0.036 l 15.08,-15.04 c 8.329,-8.306 8.345,-21.792 0.037,-30.118 z M 238.485,320 c -52.934,0 -96,-43.066 -96,-96 0,-52.934 43.066,-96 96,-96 52.934,0 96,43.066 96,96 0,52.934 -43.065,96 -96,96 z"
             id="path4696" />
        </g>
      </g>
      <g
         id="g4698">
        <g
           id="g4700">
          <path
             style="fill:#2c3143;fill-opacity:1"
             inkscape:connector-curvature="0"
             d="m 270.477,156.211 -31.998,18.467 -31.986,-18.468 -40,23.086 v 46.18 l 32,18.482 v 36.941 l 39.984,23.101 40,-23.102 v -36.947 l 32,-18.474 v -46.18 z m -8,115.453 -24,13.851 -23.984,-13.851 v -27.708 c 14.726,-8.509 9.257,-5.35 23.984,-13.854 l 24,13.851 z m 32,-55.422 -24,13.859 -24,-13.859 v -27.711 l 24,-13.851 24,13.851 z"
             id="path4702" />
        </g>
      </g>
      <g
         id="g4704">
        <g
           id="g4706">
          <path
             style="fill:#2c3143;fill-opacity:1"
             inkscape:connector-curvature="0"
             d="M 91.579,145.478 C 163.197,76.066 190.485,52.817 190.485,16 c 0,-8.836 -7.156,-16 -16,-16 -8.844,0 -16,7.164 -16,16 0,5.294 -1.446,10.423 -4.238,16 H 66.496 c -2.81,-5.61 -4.01,-10.678 -4.01,-16 0,-8.836 -7.156,-16 -16,-16 -8.844,0 -16,7.164 -16,16 0,23.716 11.568,42.002 38.545,70.195 2.642,2.76 6.285,4.336 10.106,4.373 3.821,0.037 7.498,-1.468 10.19,-4.178 l 2.554,-2.571 C 97.31,78.354 97.38,69.549 92.03,64 h 36.842 c -5.45,5.658 -13.247,13.46 -18.398,18.518 L 87.489,104.87 69.267,122.539 c -37.25,36.234 -54.61,68.578 -54.61,101.774 0,39.252 24.873,72.158 54.661,102.34 6.357,6.441 16.713,6.587 23.106,0.182 6.288,-6.301 6.282,-16.558 -0.035,-22.829 -7.894,-7.837 -14.956,-15.428 -21.802,-24.005 12.482,0 26.733,0 35.196,0 -4.273,-10.112 -7.266,-20.866 -9.138,-32 H 51.539 c -2.952,-7.744 -4.882,-15.605 -4.882,-23.68 0,-7.938 1.725,-16.016 4.928,-24.32 h 45.059 c 1.872,-11.136 4.866,-21.889 9.138,-32 -11.05,0 -22.749,0 -34.91,0 5.824,-7.231 12.669,-14.707 20.707,-22.523 z"
             id="path4708" />
        </g>
      </g>
      <g
         id="g4710">
        <g
           id="g4712">
          <path
             style="fill:#2c3143;fill-opacity:1"
             inkscape:connector-curvature="0"
             d="m 151.165,360.395 c -3.012,-3.11 -7.14,-4.899 -11.467,-4.967 -4.328,-0.068 -8.512,1.588 -11.62,4.601 -3.112,3.017 -4.869,7.166 -4.869,11.5 0,4.335 1.758,8.484 4.871,11.5 l 1.002,0.972 H 92.38 c 5.173,-5.337 11.034,-11.233 18.023,-18.098 l 23.499,-22.519 c 4.134,-4.067 8.521,-8.384 10.618,-10.417 -8.102,-6.993 -15.367,-14.89 -21.743,-23.508 l -12.245,12.021 -23.499,22.526 c -43.537,42.806 -56.548,59.788 -56.548,88.519 0,8.836 7.156,16 16,16 8.844,0 16,-7.164 16,-16 0,-5.637 1.194,-10.77 4.086,-16.523 h 87.278 c 2.782,5.652 4.637,11.182 4.637,16.523 0,8.836 7.156,16 16,16 8.844,0 16,-7.164 16,-16 -10e-4,-25.621 -16.791,-48.875 -39.321,-72.13 z"
             id="path4714" />
        </g>
      </g>
      <g
         id="g4716" />
      <g
         id="g4718" />
      <g
         id="g4720" />
      <g
         id="g4722" />
      <g
         id="g4724" />
      <g
         id="g4726" />
      <g
         id="g4728" />
      <g
         id="g4730" />
      <g
         id="g4732" />
      <g
         id="g4734" />
      <g
         id="g4736" />
      <g
         id="g4738" />
      <g
         id="g4740" />
      <g
         id="g4742" />
      <g
         id="g4744" />
    </g>
  </g>
</svg>
