<?xml version="1.0" encoding="UTF-8" standalone="no"?>
<!-- Created with Inkscape (http://www.inkscape.org/) -->

<svg
   xmlns:dc="http://purl.org/dc/elements/1.1/"
   xmlns:cc="http://creativecommons.org/ns#"
   xmlns:rdf="http://www.w3.org/1999/02/22-rdf-syntax-ns#"
   xmlns:svg="http://www.w3.org/2000/svg"
   xmlns="http://www.w3.org/2000/svg"
   xmlns:sodipodi="http://sodipodi.sourceforge.net/DTD/sodipodi-0.dtd"
   xmlns:inkscape="http://www.inkscape.org/namespaces/inkscape"
   width="154.43028mm"
   height="221.20168mm"
   viewBox="0 0 154.43028 221.20168"
   version="1.1"
   id="svg921"
   inkscape:version="0.92.2 5c3e80d, 2017-08-06"
   sodipodi:docname="freiburg_muenster_white.svg"
   inkscape:export-filename="/Users/bebatut/Documents/com/conf/2019/gcc2019/com/program/freiburg_muenster_white.png"
   inkscape:export-xdpi="200"
   inkscape:export-ydpi="200">
  <defs
     id="defs915" />
  <sodipodi:namedview
     id="base"
     pagecolor="#ffffff"
     bordercolor="#666666"
     borderopacity="1.0"
     inkscape:pageopacity="0.0"
     inkscape:pageshadow="2"
     inkscape:zoom="0.98994949"
     inkscape:cx="108.97961"
     inkscape:cy="187.01087"
     inkscape:document-units="mm"
     inkscape:current-layer="layer1"
     showgrid="false"
     fit-margin-top="0"
     fit-margin-left="0"
     fit-margin-right="0"
     fit-margin-bottom="0"
     inkscape:window-width="1280"
     inkscape:window-height="755"
     inkscape:window-x="0"
     inkscape:window-y="1"
     inkscape:window-maximized="1"
     inkscape:pagecheckerboard="true" />
  <metadata
     id="metadata918">
    <rdf:RDF>
      <cc:Work
         rdf:about="">
        <dc:format>image/svg+xml</dc:format>
        <dc:type
           rdf:resource="http://purl.org/dc/dcmitype/StillImage" />
        <dc:title></dc:title>
      </cc:Work>
    </rdf:RDF>
  </metadata>
  <g
     inkscape:label="Layer 1"
     inkscape:groupmode="layer"
     id="layer1"
     transform="translate(59.072283,19.219883)">
    <path
       sodipodi:nodetypes="ccccccccccccccccccccccccccccccccccccccccccc"
       inkscape:connector-curvature="0"
       id="path4397-0-2-8"
       d="m -59.072283,201.98179 v -96.6977 l 7.257147,12.09523 2.063581,-17.14757 c -1.899045,-2.125703 -0.828492,-4.490133 1.853071,-4.418863 l 1.140347,-10.8333 c -2.005471,-0.94793 -2.036007,-4.578437 1.42542,-4.56139 l 2.138172,-10.548226 c -2.077466,-1.086641 -1.324949,-4.302394 1.42542,-3.27852 l 1.140375,-9.69295 c -1.783136,-0.865772 -2.736483,-3.897884 0.712696,-4.133794 l 2.138172,-9.55043 c -2.283601,-1.472887 -3.203928,-5.322342 1.282898,-5.701733 l 1.995593,-11.546052 c -1.828856,-1.145482 -2.300534,-5.099389 1.710521,-5.131562 l 1.282897,-9.835528 c -2.033862,-0.826969 -2.776079,-4.6825476 0.712724,-5.2741136 l 4.70394,-24.9451714 3.848693,24.6600704 c 2.356837,-0.105043 2.762276,3.638409 0.855244,4.276316 l 1.282899,10.1206006 c 2.380742,0.240454 2.721271,2.771818 0.855273,3.706143 l 1.567971,14.539468 c 2.325767,0.454351 2.260997,3.281426 0.712724,3.991216 l 1.568001,9.835531 c 1.855157,0.129143 2.252556,2.87909 0.285072,3.991213 l 1.140347,10.833328 c 2.59585,0.471196 2.315688,3.099419 0.855273,3.70614 l 1.567971,10.405674 c 2.1930361,0.23823 2.3834221,2.55363 0.855274,3.70615 l 1.2828981,10.40567 c 2.683481,0.0946 2.043515,4.07345 0.855247,4.56139 l 2.565795,14.824573 4.561387,-7.98246 2.993419,21.0448 93.7938179,0.42763 -97.2148589,4.84648 -3.135969,-11.63692 -2.423244,4.98904 L -25.80421,13.850269 -48.896309,130.59356 -56.023493,119.76023 Z"
       style="fill:#ffffff;fill-opacity:1;fill-rule:evenodd;stroke:none;stroke-width:0.28222224px;stroke-linecap:butt;stroke-linejoin:miter;stroke-opacity:1" />
  </g>
</svg>
